<svg width="235" height="151" viewBox="0 0 235 151" fill="none" xmlns="http://www.w3.org/2000/svg">
<g clip-path="url(#clip0_80_8384)">
<path d="M234.487 33.0128V30.6898C234.487 29.3477 234.224 28.0187 233.713 26.7786C233.202 25.5386 232.452 24.4118 231.507 23.4626C230.562 22.5135 229.44 21.7605 228.206 21.2468C226.971 20.7331 225.647 20.4688 224.311 20.4688H57.2927C55.9558 20.4683 54.6319 20.7324 53.3966 21.2459C52.1614 21.7594 51.0391 22.5122 50.0937 23.4614C49.1484 24.4106 48.3986 25.5376 47.8872 26.7779C47.3758 28.0182 47.1128 29.3475 47.1133 30.6898V33.0128C47.1133 34.3549 46.8499 35.6839 46.3383 36.9238C45.8267 38.1636 45.0769 39.2902 44.1316 40.239C43.1863 41.1879 42.0641 41.9405 40.8291 42.4537C39.5941 42.967 38.2705 43.231 36.9339 43.2305H21.3338C18.6343 43.2314 16.0456 44.3086 14.1368 46.2252C12.228 48.1419 11.1552 50.7411 11.1544 53.4517V55.7746C11.1544 58.4854 12.2268 61.0852 14.1358 63.002C16.0448 64.9189 18.634 65.9957 21.3338 65.9957H26.8862C29.5859 65.9957 32.1751 67.0726 34.0841 68.9894C35.9931 70.9063 37.0656 73.506 37.0656 76.2168V78.5364C37.0656 81.2472 35.9931 83.847 34.0841 85.7638C32.1751 87.6807 29.5859 88.7575 26.8862 88.7575H10.6917C9.35504 88.7575 8.03151 89.0219 6.79668 89.5356C5.56184 90.0493 4.4399 90.8023 3.49493 91.7514C2.54995 92.7006 1.80046 93.8274 1.28926 95.0675C0.778069 96.3075 0.515182 97.6366 0.515626 98.9787V101.302C0.515626 104.012 1.58775 106.61 3.49612 108.527C5.4045 110.443 7.9928 111.519 10.6917 111.519C13.3914 111.519 15.9806 112.596 17.8896 114.513C19.7986 116.43 20.8711 119.03 20.8711 121.74V124.063C20.8702 126.773 21.941 129.372 23.848 131.288C25.755 133.205 28.3421 134.283 31.0403 134.285H198.068C199.405 134.285 200.729 134.02 201.963 133.506C203.198 132.993 204.32 132.24 205.265 131.291C206.21 130.341 206.96 129.215 207.471 127.975C207.982 126.735 208.245 125.406 208.244 124.063V121.74C208.244 119.03 207.172 116.431 205.264 114.514C203.356 112.597 200.768 111.52 198.068 111.519C196.732 111.52 195.408 111.256 194.173 110.743C192.938 110.229 191.816 109.477 190.871 108.528C189.925 107.579 189.176 106.452 188.664 105.213C188.152 103.973 187.889 102.644 187.889 101.302V98.9787C187.889 97.6363 188.152 96.307 188.663 95.0667C189.174 93.8264 189.924 92.6994 190.869 91.7502C191.815 90.801 192.937 90.0482 194.172 89.5347C195.408 89.0212 196.731 88.7571 198.068 88.7575H214.26C215.596 88.758 216.92 88.4939 218.156 87.9804C219.391 87.4669 220.513 86.714 221.458 85.7648C222.404 84.8156 223.154 83.6887 223.665 82.4484C224.176 81.2081 224.439 79.8788 224.439 78.5364V76.2168C224.439 74.8745 224.176 73.5452 223.665 72.3049C223.154 71.0646 222.404 69.9376 221.458 68.9884C220.513 68.0392 219.391 67.2864 218.156 66.7729C216.92 66.2594 215.596 65.9953 214.26 65.9957H208.707C207.37 65.9957 206.047 65.7313 204.812 65.2176C203.577 64.7039 202.455 63.951 201.51 63.0018C200.565 62.0527 199.816 60.9259 199.305 59.6858C198.794 58.4458 198.531 57.1167 198.531 55.7746V53.4517C198.531 50.7414 199.603 48.1422 201.511 46.2254C203.42 44.3087 206.008 43.2314 208.707 43.2305H224.311C227.009 43.2305 229.598 42.154 231.506 40.2378C233.414 38.3216 234.487 35.7227 234.487 33.0128Z" fill="#F9F9F9"/>
<path d="M20.5076 28.4694C20.5076 28.9264 20.8758 29.2969 21.33 29.2969C21.7841 29.2969 22.1523 28.9264 22.1523 28.4694V22.7858C22.1523 22.3288 21.7841 21.9583 21.33 21.9583C20.8758 21.9583 20.5076 22.3288 20.5076 22.7858V28.4694Z" fill="#D7B4B4"/>
<path d="M13.0165 19.2957C12.5613 19.2957 12.1924 19.6654 12.1924 20.1215C12.1924 20.5776 12.5613 20.9473 13.0165 20.9473H18.6769C19.1321 20.9473 19.501 20.5776 19.501 20.1215C19.501 19.6654 19.1321 19.2957 18.6769 19.2957H13.0165Z" fill="#D7B4B4"/>
<path d="M22.1492 11.7747C22.1492 11.3177 21.781 10.9473 21.3268 10.9473C20.8726 10.9473 20.5044 11.3177 20.5044 11.7747V17.4584C20.5044 17.9154 20.8726 18.2858 21.3268 18.2858C21.781 18.2858 22.1492 17.9154 22.1492 17.4584V11.7747Z" fill="#D7B4B4"/>
<path d="M29.6403 20.9484C30.0954 20.9484 30.4644 20.5787 30.4644 20.1226C30.4644 19.6666 30.0954 19.2969 29.6403 19.2969H23.9798C23.5247 19.2969 23.1557 19.6666 23.1557 20.1226C23.1557 20.5787 23.5247 20.9484 23.9798 20.9484H29.6403Z" fill="#D7B4B4"/>
<path d="M160.865 37.1168C160.823 36.6776 160.435 36.3545 159.998 36.3952C159.561 36.4358 159.241 36.8248 159.283 37.264L159.806 42.7266C159.848 43.1658 160.236 43.4889 160.673 43.4482C161.11 43.4076 161.43 43.0186 161.388 42.5794L160.865 37.1168Z" fill="#596890"/>
<path d="M167.842 41.1922C168.2 40.9373 168.284 40.4395 168.029 40.0802C167.774 39.7209 167.277 39.6363 166.919 39.8912L162.463 43.0611C162.105 43.3159 162.021 43.8138 162.276 44.1731C162.531 44.5323 163.028 44.617 163.386 44.3621L167.842 41.1922Z" fill="#596890"/>
<path d="M167.827 49.2785C168.228 49.4628 168.7 49.2881 168.882 48.8882C169.064 48.4883 168.887 48.0146 168.487 47.8303L163.508 45.5376C163.108 45.3533 162.636 45.528 162.453 45.928C162.271 46.3279 162.448 46.8015 162.848 46.9858L167.827 49.2785Z" fill="#596890"/>
<path d="M223.897 129.709C223.897 130.052 224.173 130.33 224.515 130.33C224.856 130.33 225.133 130.052 225.133 129.709V125.43C225.133 125.087 224.856 124.809 224.515 124.809C224.173 124.809 223.897 125.087 223.897 125.43V129.709Z" fill="#A5CADC"/>
<path d="M219.406 119.757C219.11 119.586 218.732 119.687 218.561 119.984C218.391 120.281 218.492 120.66 218.788 120.832L222.479 122.972C222.775 123.143 223.153 123.041 223.323 122.744C223.494 122.448 223.393 122.068 223.097 121.897L219.406 119.757Z" fill="#A5CADC"/>
<path d="M230.24 120.829C230.535 120.657 230.636 120.278 230.466 119.981C230.295 119.684 229.917 119.582 229.621 119.754L225.93 121.894C225.635 122.065 225.533 122.444 225.704 122.741C225.875 123.038 226.253 123.14 226.548 122.968L230.24 120.829Z" fill="#A5CADC"/>
<path d="M205.949 14.9493C208.602 14.9493 210.752 12.7903 210.752 10.127C210.752 7.46371 208.602 5.30469 205.949 5.30469C203.297 5.30469 201.146 7.46371 201.146 10.127C201.146 12.7903 203.297 14.9493 205.949 14.9493Z" stroke="#A5CADC" stroke-width="3" stroke-miterlimit="10"/>
<path d="M45.99 147.123C48.5827 147.123 50.6845 145.012 50.6845 142.409C50.6845 139.806 48.5827 137.695 45.99 137.695C43.3972 137.695 41.2954 139.806 41.2954 142.409C41.2954 145.012 43.3972 147.123 45.99 147.123Z" stroke="#C4C4C4" stroke-width="4" stroke-miterlimit="10"/>
<path d="M72.9314 81.2096C73.3075 80.7941 73.7413 80.4347 74.2195 80.1425C77.8422 77.7999 81.4608 75.451 85.0754 73.0959C85.7687 72.6443 86.4936 72.4318 87.2871 72.7565C87.6703 72.893 88.0049 73.139 88.2494 73.4639C88.494 73.7888 88.6377 74.1784 88.6628 74.5843C88.7129 74.9875 88.6467 75.3965 88.4719 75.7633C88.2972 76.1301 88.0212 76.4393 87.6766 76.6545C86.3781 77.5188 85.0644 78.3602 83.7563 79.2099C81.3443 80.7766 78.9002 82.2963 76.531 83.9251C75.0104 84.9705 73.2209 84.6678 72.6269 82.6419L72.9314 81.2096Z" fill="#67759A"/>
<path d="M90.1443 109.42C88.4858 108.149 88.5403 106.528 90.2874 105.392C94.0113 102.97 97.7364 100.551 101.463 98.1325C102.254 97.6172 103.073 97.565 103.886 98.0118C104.248 98.2003 104.545 98.4919 104.74 98.8496C104.935 99.2073 105.02 99.6149 104.983 100.021C104.966 100.377 104.861 100.724 104.677 101.03C104.493 101.336 104.236 101.591 103.929 101.773C100.087 104.282 96.2404 106.783 92.3881 109.276C92.0462 109.465 91.6752 109.596 91.2904 109.663L90.1443 109.42Z" fill="#67759A"/>
<path d="M156.372 49.5793C156.337 50.0543 156.027 50.4696 155.744 50.8967C147.713 63.0421 139.681 75.1874 131.648 87.3326C128.272 92.439 124.895 97.5453 121.518 102.652C120.393 104.348 118.455 104.572 117.189 103.181C116.775 102.727 116.624 102.165 116.5 101.59C115.313 96.1069 114.128 90.6236 112.944 85.14C112.372 82.4937 111.793 79.8489 111.242 77.1981C111.141 76.7111 110.836 76.4572 110.474 76.1925C103.815 71.3288 97.159 66.4625 90.5044 61.5938C89.6441 60.9656 89.0554 60.203 89.1315 59.0889C89.2239 57.7378 90.0256 56.8771 91.4215 56.6358C94.2579 56.1455 97.0963 55.6669 99.9368 55.1998C113.845 52.8808 127.753 50.5629 141.661 48.2462C145.487 47.6086 149.312 46.9706 153.138 46.332C153.864 46.1955 154.615 46.3178 155.261 46.6776C156.249 47.235 156.65 48.3125 156.372 49.5793ZM120.009 96.9229C120.304 96.4885 120.481 96.2339 120.652 95.9751C123.705 91.3558 126.758 86.7363 129.811 82.1165C136.43 72.1062 143.049 62.0954 149.666 52.0841C149.791 51.8963 150.083 51.7089 149.91 51.4578C149.77 51.2537 149.503 51.436 149.293 51.4465C149.196 51.4552 149.099 51.4694 149.004 51.4891C131.775 54.3615 114.546 57.2358 97.318 60.112C97.0186 60.162 96.6864 60.1328 96.3871 60.375C96.4926 60.4803 96.6033 60.5803 96.7188 60.6744C101.918 64.4763 107.127 68.2631 112.306 72.0925C112.969 72.5833 113.406 72.5694 114.085 72.1203C118.318 69.32 122.587 66.5725 126.846 63.8108C127.147 63.6028 127.464 63.419 127.794 63.2612C128.21 63.0768 128.673 63.0257 129.119 63.115C129.565 63.2043 129.973 63.4296 130.285 63.7599C130.593 64.0956 130.789 64.5174 130.849 64.9684C130.909 65.4194 130.829 65.878 130.621 66.2822C130.332 66.8524 129.804 67.1778 129.293 67.5101C124.956 70.33 120.614 73.1448 116.27 75.9545C115.776 76.2728 115.589 76.5618 115.728 77.1895C116.801 82.0238 117.827 86.8685 118.87 91.7094C119.229 93.3741 119.597 95.0369 120.009 96.9229Z" fill="#67759A"/>
<path d="M82.871 96.8166C82.5027 96.7252 82.1643 96.54 81.8887 96.2793C81.613 96.0185 81.4094 95.6909 81.2977 95.3283C81.186 94.9657 81.1699 94.5804 81.2511 94.2097C81.3322 93.8391 81.5078 93.4958 81.7607 93.213C81.9747 92.9799 82.2199 92.7775 82.4894 92.6116C88.2728 88.8497 94.0586 85.0914 99.8467 81.3367C100.614 80.8386 101.403 80.5302 102.318 80.9517C102.644 81.0923 102.931 81.3108 103.152 81.5879C103.374 81.8649 103.524 82.1922 103.59 82.5409C103.656 82.8896 103.635 83.2491 103.529 83.5879C103.424 83.9267 103.237 84.2343 102.984 84.4838C102.739 84.7212 102.469 84.9313 102.179 85.1106C96.4768 88.8185 90.773 92.5241 85.0678 96.2274C84.3944 96.6652 83.6983 96.9741 82.871 96.8166Z" fill="#67759A"/>
<path d="M120.009 96.9209C120.304 96.4865 120.481 96.2319 120.652 95.9732C123.705 91.3538 126.758 86.7343 129.811 82.1145C136.43 72.1042 143.048 62.0934 149.666 52.0821C149.79 51.8943 150.083 51.7069 149.91 51.4558C149.77 51.2517 149.503 51.434 149.293 51.4445C149.196 51.4532 149.099 51.4674 149.004 51.4872C131.775 54.3595 114.546 57.2338 97.3179 60.11C97.0185 60.16 96.6863 60.1308 96.387 60.373C96.4924 60.4783 96.6031 60.5783 96.7187 60.6724C101.917 64.4743 107.127 68.2611 112.306 72.0905C112.969 72.5813 113.405 72.5675 114.084 72.1184C118.318 69.318 122.587 66.5705 126.846 63.8088C127.147 63.6008 127.464 63.417 127.794 63.2593C128.21 63.0748 128.673 63.0238 129.119 63.113C129.565 63.2023 129.973 63.4276 130.285 63.7579C130.593 64.0936 130.789 64.5154 130.849 64.9664C130.909 65.4174 130.829 65.876 130.62 66.2802C130.331 66.8504 129.804 67.1758 129.293 67.5081C124.955 70.3281 120.614 73.1429 116.27 75.9525C115.776 76.2708 115.589 76.5598 115.728 77.1875C116.801 82.0218 117.827 86.8666 118.87 91.7074C119.229 93.3721 119.597 95.035 120.009 96.9209Z" fill="#D3D7E0"/>
</g>
<defs>
<clipPath id="clip0_80_8384">
<rect width="233.974" height="150" fill="white" transform="translate(0.513672 0.796875)"/>
</clipPath>
</defs>
</svg>
